<?xml version="1.0" encoding="UTF-8" standalone="no"?>
<!DOCTYPE svg PUBLIC "-//W3C//DTD SVG 1.1//EN" "http://www.w3.org/Graphics/SVG/1.1/DTD/svg11.dtd">
<svg width="100%" height="100%" viewBox="0 0 2160 720" version="1.1" xmlns="http://www.w3.org/2000/svg" xmlns:xlink="http://www.w3.org/1999/xlink" xml:space="preserve" xmlns:serif="http://www.serif.com/" style="fill-rule:evenodd;clip-rule:evenodd;stroke-linejoin:round;stroke-miterlimit:2;">
    <g transform="matrix(1,0,0,1,0,0)">
        <g id="Logo---Text--Gradient-Black-Text-" serif:id="Logo + Text (Gradient-Black Text)" transform="matrix(1,0,0,1,0,0)">
            <rect x="0" y="0" width="2160" height="720" style="fill:none;"/>
            <clipPath id="_clip1">
                <rect x="0" y="0" width="2160" height="720"/>
            </clipPath>
            <g clip-path="url(#_clip1)">
                <g transform="matrix(1,0,0,1,1,0.93)">
                    <g transform="matrix(1.37978,0,0,1.37978,-972.47,-4884.79)">
                        <rect x="1226.98" y="3729.69" width="33.161" height="150.73" style="fill:black;fill-rule:nonzero;"/>
                        <path d="M1281.93,3764.47L1281.93,3880.42L1315.09,3880.42L1315.09,3819.43C1315.09,3805.98 1328.54,3796.24 1345.7,3796.24L1353.12,3796.24L1353.12,3762.16L1345.47,3762.16C1334.34,3762.16 1322.75,3769.81 1315.09,3783.49L1315.09,3764.47L1281.93,3764.47Z" style="fill:black;fill-rule:nonzero;"/>
                        <path d="M1365.18,3821.98C1365.18,3859.09 1388.84,3883.9 1424.32,3883.9C1459.56,3883.9 1482.98,3859.09 1482.98,3821.98C1482.98,3785.11 1459.56,3760.53 1424.32,3760.53C1388.84,3760.53 1365.18,3785.11 1365.18,3821.98ZM1449.13,3821.98C1449.13,3843.09 1439.85,3855.14 1424.32,3855.14C1408.31,3855.14 1399.04,3843.09 1399.04,3821.98C1399.04,3801.35 1408.31,3789.29 1424.32,3789.29C1439.85,3789.29 1449.13,3801.35 1449.13,3821.98Z" style="fill:black;fill-rule:nonzero;"/>
                        <path d="M1580.84,3814.8L1580.84,3880.42L1614,3880.42L1614,3807.84C1614,3777.46 1596.38,3760.53 1571.8,3760.53C1558.58,3760.53 1544.67,3768.18 1536.09,3781.87L1536.09,3764.47L1502.69,3764.47L1502.69,3880.42L1536.09,3880.42L1536.09,3813.4C1536.09,3800.19 1545.59,3790.68 1558.35,3790.68C1572.03,3790.68 1580.84,3797.87 1580.84,3814.8Z" style="fill:black;fill-rule:nonzero;"/>
                        <path d="M1703.51,3822.22C1716.96,3823.61 1723.69,3828.71 1723.69,3837.29C1723.69,3848.42 1713.95,3855.38 1699.11,3855.38C1680.32,3855.38 1670.35,3848.65 1667.8,3833.81L1633.48,3833.81C1636.96,3863.72 1661.31,3882.28 1698.88,3882.28C1734.12,3882.28 1757.31,3864.19 1757.31,3836.36C1757.31,3808.07 1741.08,3792.53 1707.45,3788.82L1685.89,3786.51C1674.06,3785.11 1668.27,3780.47 1668.27,3771.89C1668.27,3761.23 1678.24,3754.04 1693.08,3754.04C1709.54,3754.04 1718.35,3760.76 1720.67,3775.14L1754.53,3775.14C1751.28,3745.69 1728.33,3727.6 1693.54,3727.6C1657.37,3727.6 1634.64,3745.46 1634.64,3773.75C1634.64,3800.65 1650.64,3816.65 1679.86,3819.9L1703.51,3822.22Z" style="fill:black;fill-rule:nonzero;"/>
                        <path d="M1855.17,3814.8L1855.17,3880.42L1888.33,3880.42L1888.33,3807.84C1888.33,3777.46 1870.48,3760.53 1845.89,3760.53C1832.68,3760.53 1818.76,3768.18 1810.18,3781.87L1810.18,3718.1L1777.02,3718.1L1777.02,3880.42L1810.18,3880.42L1810.18,3813.4C1810.18,3800.19 1819.92,3790.68 1832.68,3790.68C1846.36,3790.68 1855.17,3797.87 1855.17,3814.8Z" style="fill:black;fill-rule:nonzero;"/>
                        <path d="M1908.51,3722.5L1908.51,3750.56L1944.91,3750.56L1944.91,3722.5L1908.51,3722.5ZM1910.13,3764.47L1910.13,3880.42L1943.29,3880.42L1943.29,3764.47L1910.13,3764.47Z" style="fill:black;fill-rule:nonzero;"/>
                        <path d="M1962.77,3821.98C1962.77,3859.09 1985.49,3882.28 2021.67,3882.28C2054.13,3882.28 2074.31,3868.83 2078.71,3841.46L2043.23,3841.46C2041.38,3850.74 2034.19,3856.3 2021.9,3856.3C2007.52,3856.3 1999.17,3847.49 1997.09,3830.33L2080.11,3830.33L2080.11,3822.91C2080.11,3787.43 2055.06,3762.16 2020.28,3762.16C1985.03,3762.16 1962.77,3785.11 1962.77,3821.98ZM2020.51,3786.04C2033.96,3786.04 2043.23,3794.85 2044.39,3808.3L1997.78,3808.3C2000.33,3793 2008.22,3786.04 2020.51,3786.04Z" style="fill:black;fill-rule:nonzero;"/>
                        <rect x="2099.58" y="3718.1" width="33.161" height="162.324" style="fill:black;fill-rule:nonzero;"/>
                        <path d="M2269.33,3718.1L2236.17,3718.1L2236.17,3782.56C2228.28,3768.65 2215.53,3760.53 2199.99,3760.53C2171.47,3760.53 2152.22,3785.11 2152.22,3821.98C2152.22,3859.09 2171.47,3883.9 2199.99,3883.9C2215.53,3883.9 2228.28,3875.78 2236.17,3861.87L2236.17,3880.42L2269.33,3880.42L2269.33,3718.1ZM2186.08,3821.98C2186.08,3801.35 2195.36,3789.29 2211.12,3789.29C2226.89,3789.29 2236.17,3801.35 2236.17,3821.98C2236.17,3843.09 2226.89,3855.14 2211.12,3855.14C2195.36,3855.14 2186.08,3843.09 2186.08,3821.98Z" style="fill:black;fill-rule:nonzero;"/>
                    </g>
                    <g transform="matrix(1.54595,0,0,1.54595,-5511.18,-1360.69)">
                        <path d="M3733.57,914.329C3735.32,912.097 3737.05,909.83 3738.76,907.53C3738.76,907.53 3753.27,888.084 3758.49,881.086C3758.93,880.504 3759.61,880.161 3760.34,880.161C3761.07,880.161 3761.75,880.504 3762.18,881.086C3767.4,888.084 3781.91,907.53 3781.91,907.53C3783.63,909.83 3785.36,912.097 3787.11,914.329C3787.11,914.329 3789.16,916.946 3791.01,919.309C3791.55,920.002 3791.65,920.943 3791.26,921.735C3790.88,922.526 3790.08,923.028 3789.2,923.028C3776.87,923.028 3743.81,923.028 3731.48,923.028C3730.6,923.028 3729.8,922.526 3729.41,921.735C3729.03,920.943 3729.13,920.002 3729.67,919.309C3731.52,916.946 3733.57,914.329 3733.57,914.329ZM3810.48,942.297C3811.08,942.297 3811.65,942.527 3812.08,942.938C3815.94,946.643 3835.66,965.442 3845.83,973.491C3845.83,973.491 3849.48,976.379 3852.78,978.988C3853.54,979.595 3853.84,980.623 3853.52,981.548C3853.2,982.472 3852.33,983.092 3851.35,983.092C3821.46,983.092 3699.21,983.092 3669.33,983.092C3668.35,983.092 3667.48,982.472 3667.16,981.548C3666.84,980.623 3667.13,979.595 3667.9,978.988C3671.2,976.379 3674.85,973.491 3674.85,973.491C3685.02,965.442 3704.73,946.643 3708.6,942.938C3709.03,942.527 3709.6,942.297 3710.2,942.297C3719.78,942.297 3800.89,942.297 3810.48,942.297ZM3874.55,1002.36C3874.96,1002.36 3875.36,1002.47 3875.72,1002.68C3879.95,1005.15 3908.11,1021.54 3922.63,1028.02C3922.63,1028.02 3936.65,1034.29 3946.65,1038.76C3947.64,1039.2 3948.19,1040.27 3947.96,1041.34C3947.73,1042.4 3946.8,1043.16 3945.71,1043.16C3889.55,1043.16 3631.12,1043.16 3574.97,1043.16C3573.88,1043.16 3572.94,1042.4 3572.72,1041.34C3572.49,1040.27 3573.04,1039.2 3574.03,1038.76C3584.03,1034.29 3598.05,1028.02 3598.05,1028.02C3612.56,1021.54 3640.72,1005.15 3644.96,1002.68C3645.32,1002.47 3645.72,1002.36 3646.12,1002.36C3658.84,1002.36 3861.84,1002.36 3874.55,1002.36ZM3953.47,1062.43C3954.19,1062.43 3954.87,1062.76 3955.3,1063.34C3955.74,1063.91 3955.88,1064.65 3955.69,1065.34C3955.17,1067.2 3954.6,1069.25 3954.6,1069.25C3952.16,1078 3946.6,1096.1 3944.9,1101.6C3944.6,1102.56 3943.71,1103.22 3942.7,1103.22C3916.85,1103.22 3603.83,1103.22 3577.97,1103.22C3576.97,1103.22 3576.07,1102.56 3575.78,1101.6C3574.08,1096.1 3568.51,1078 3566.08,1069.25C3566.08,1069.25 3565.51,1067.2 3564.99,1065.34C3564.8,1064.65 3564.94,1063.91 3565.38,1063.34C3565.81,1062.76 3566.49,1062.43 3567.21,1062.43C3601.66,1062.43 3919.02,1062.43 3953.47,1062.43ZM3934.62,1122.49C3935.37,1122.49 3936.07,1122.86 3936.51,1123.47C3936.93,1124.09 3937.04,1124.88 3936.78,1125.58C3936.06,1127.55 3935.27,1129.72 3935.27,1129.72C3932,1138.64 3924.66,1156.66 3922.54,1161.86C3922.19,1162.72 3921.35,1163.29 3920.41,1163.29C3897.35,1163.29 3623.33,1163.29 3600.26,1163.29C3599.33,1163.29 3598.49,1162.72 3598.14,1161.86C3596.01,1156.66 3588.68,1138.64 3585.41,1129.72C3585.41,1129.72 3584.62,1127.55 3583.9,1125.58C3583.64,1124.88 3583.74,1124.09 3584.17,1123.47C3584.6,1122.86 3585.31,1122.49 3586.06,1122.49C3619.72,1122.49 3900.95,1122.49 3934.62,1122.49ZM3909.61,1182.56C3910.4,1182.56 3911.14,1182.97 3911.56,1183.64C3911.98,1184.32 3912.02,1185.16 3911.67,1185.88C3910.62,1187.99 3909.47,1190.33 3909.47,1190.33C3904.91,1199.53 3894.85,1217.45 3892.18,1222.18C3891.77,1222.9 3891.01,1223.35 3890.18,1223.35C3870.88,1223.35 3649.8,1223.35 3630.5,1223.35C3629.67,1223.35 3628.91,1222.9 3628.5,1222.18C3625.83,1217.45 3615.77,1199.53 3611.21,1190.33C3611.21,1190.33 3610.06,1187.99 3609.01,1185.88C3608.66,1185.16 3608.7,1184.32 3609.12,1183.64C3609.54,1182.97 3610.28,1182.56 3611.07,1182.56C3643.41,1182.56 3877.26,1182.56 3909.61,1182.56ZM3874.96,1242.62C3875.83,1242.62 3876.62,1243.1 3877.01,1243.87C3877.4,1244.64 3877.34,1245.56 3876.83,1246.26C3875.18,1248.57 3873.34,1251.13 3873.34,1251.13C3866.35,1260.9 3851.28,1278.64 3847.88,1282.61C3847.45,1283.12 3846.81,1283.42 3846.14,1283.42C3832.35,1283.42 3688.33,1283.42 3674.54,1283.42C3673.87,1283.42 3673.23,1283.12 3672.79,1282.61C3669.4,1278.64 3654.32,1260.9 3647.33,1251.13C3647.33,1251.13 3645.5,1248.57 3643.84,1246.26C3643.34,1245.56 3643.27,1244.64 3643.67,1243.87C3644.06,1243.1 3644.85,1242.62 3645.72,1242.62C3675.54,1242.62 3845.14,1242.62 3874.96,1242.62ZM3821.84,1302.68C3822.81,1302.68 3823.68,1303.3 3824.01,1304.22C3824.33,1305.14 3824.04,1306.16 3823.28,1306.78C3820.06,1309.38 3816.49,1312.26 3816.49,1312.26C3802.39,1323.62 3770.17,1345.5 3760.34,1345.5C3750.51,1345.5 3718.29,1323.62 3704.19,1312.26C3704.19,1312.26 3700.62,1309.38 3697.39,1306.78C3696.64,1306.16 3696.34,1305.14 3696.67,1304.22C3696.99,1303.3 3697.86,1302.68 3698.84,1302.68C3721.81,1302.68 3798.86,1302.68 3821.84,1302.68Z" style="fill:url(#_Linear2);"/>
                    </g>
                </g>
            </g>
        </g>
    </g>
    <defs>
        <linearGradient id="_Linear2" x1="0" y1="0" x2="1" y2="0" gradientUnits="userSpaceOnUse" gradientTransform="matrix(-388.94,-463.293,463.293,-388.94,3954.81,1345.5)"><stop offset="0" style="stop-color:rgb(0,116,233);stop-opacity:1"/><stop offset="1" style="stop-color:rgb(158,205,252);stop-opacity:1"/></linearGradient>
    </defs>
</svg>
